<svg width="54" height="48" viewBox="0 0 54 48" fill="none" xmlns="http://www.w3.org/2000/svg">
<path d="M26.9997 21.9424C26.4597 22.086 25.9197 22.3732 25.4877 22.7082C25.1097 23.0432 24.8397 23.5219 24.6777 24.0005C24.8397 24.4792 25.1637 24.9578 25.5417 25.3407C25.9737 25.6757 26.4597 25.9629 26.9997 26.1065C27.5397 25.9629 28.0797 25.6757 28.5117 25.3407C28.8897 25.0057 29.2137 24.527 29.3757 24.0484C29.2137 23.5697 28.8897 23.0911 28.5117 22.7082C28.0797 22.3253 27.5937 22.086 26.9997 21.9424Z" fill="#DC1B79"/>
<path d="M27 0.0683594C12.096 0.0683594 0 10.7898 0 24.0002C0 37.2105 12.096 47.932 27 47.932C41.904 47.932 54 37.2105 54 24.0002C54 10.7898 41.904 0.0683594 27 0.0683594ZM39.96 30.749C39.852 31.9934 39.258 33.0943 38.286 33.9558C36.18 35.8225 32.886 36.014 30.996 34.2909L30.078 33.525L31.806 31.9934L32.67 32.7592C33.102 33.0943 33.642 33.3336 34.236 33.2857C35.964 33.2379 37.368 32.0413 37.53 30.5096C37.584 29.9353 37.368 29.3609 36.936 28.9301L32.994 25.4361L31.104 27.1113C30.996 27.207 30.888 27.2549 30.78 27.3506C30.672 27.4464 30.618 27.4942 30.51 27.59L28.62 29.2652L30.942 31.3233L29.214 32.855L27 30.7968L23.058 34.2909C22.086 35.1524 20.79 35.5832 19.386 35.4396C17.982 35.3439 16.74 34.8174 15.768 33.9558C13.662 32.0891 13.446 29.1695 15.39 27.4942L16.254 26.7284L17.982 28.26L17.118 29.0259C16.74 29.4088 16.47 29.8874 16.524 30.4139C16.578 31.9455 17.928 33.19 19.656 33.3336C20.304 33.3815 20.952 33.19 21.438 32.8071L25.38 29.313L23.49 27.6378C23.382 27.5421 23.328 27.4464 23.22 27.3506C23.112 27.2549 23.058 27.207 22.95 27.1113L21.06 25.4361L18.738 27.4942L17.01 25.9626L19.332 23.9045L15.39 20.4104C14.418 19.5489 13.932 18.4001 14.094 17.1557C14.202 15.9112 14.796 14.8104 15.768 13.9488C17.874 12.0821 21.168 11.8907 23.058 13.6138L23.922 14.3796L22.194 15.9112L21.33 15.1454C20.898 14.8104 20.358 14.571 19.764 14.6189C18.036 14.6668 16.632 15.8634 16.47 17.395C16.416 17.9694 16.632 18.5437 17.064 18.9745L21.006 22.4685L22.896 20.7933C23.004 20.6976 23.112 20.6497 23.22 20.554C23.328 20.4583 23.382 20.4104 23.49 20.3147L25.38 18.6395L23.058 16.5813L24.786 15.0497L27.108 17.1078L31.05 13.6138C32.022 12.7522 33.318 12.3215 34.722 12.465C36.126 12.5608 37.368 13.0873 38.34 13.9488C40.446 15.8155 40.662 18.7352 38.718 20.4104L37.854 21.2241L36.126 19.6925L36.99 18.9266C37.368 18.5437 37.638 18.0651 37.584 17.5386C37.53 16.007 36.18 14.7625 34.452 14.6189C33.804 14.571 33.156 14.7625 32.67 15.1454L28.728 18.6395L30.618 20.3147C30.726 20.4104 30.78 20.5061 30.888 20.6019C30.996 20.6976 31.05 20.7455 31.158 20.8412L33.048 22.5164L35.37 20.4583L37.098 21.9899L34.668 24.0002L38.61 27.4942C39.582 28.3558 40.068 29.5524 39.96 30.749Z" fill="#DC1B79"/>
</svg>
