<svg width="155" height="149" viewBox="0 0 155 149" fill="none" xmlns="http://www.w3.org/2000/svg">
<g clip-path="url(#clip0_52_9706)">
<path d="M61.6095 42.8491C61.4658 44.107 61.3166 45.3638 61.1339 46.6187C61.0449 47.2847 60.9476 47.953 60.9037 48.6225C60.6724 52.1965 60.4837 55.7754 60.1657 59.3442C59.9597 61.5404 59.7308 63.7345 59.4792 65.9266L59.0918 69.2133L58.6677 72.4954C58.5646 73.1574 58.4086 73.81 58.2013 74.4471C58.1281 74.7118 57.993 74.9552 57.8071 75.1574C57.6213 75.3596 57.39 75.5146 57.1324 75.6098C56.4246 75.889 55.765 75.4307 55.7057 74.5263C55.6816 73.9371 55.7312 73.3472 55.8536 72.7704C56.1069 71.4511 56.303 70.1262 56.4419 68.7958C56.5857 67.4658 56.675 66.1302 56.7098 64.7889C56.7298 64.0486 56.7073 63.2737 56.8806 62.571C57.4316 60.3254 57.491 58.0102 57.8549 55.7389C58.1243 54.0504 58.2664 52.3397 58.4851 50.6418L59.0662 46.0992C59.2512 44.5842 59.4741 43.0722 59.6639 41.5567C59.7546 40.9685 59.8838 40.3869 60.0508 39.8157C60.2222 39.2794 60.4232 38.7531 60.6528 38.2391C60.8549 37.784 61.1784 37.8402 61.2963 38.3971C61.4636 39.1963 61.575 40.0063 61.6295 40.821C61.6523 41.1556 61.6558 41.493 61.6452 41.8305C61.6208 42.1668 61.5963 42.5043 61.5719 42.8398L61.6095 42.8491Z" fill="#DC1B79"/>
<path d="M95.7687 56.1575L94.8733 57.5073L93.9441 58.8371C93.6166 59.3081 93.2873 59.7814 93.0014 60.278C92.6183 60.9397 92.2434 61.6061 91.8713 62.2739L90.7437 64.27L88.4981 68.2653L85.721 73.1777L82.9705 78.1059C82.6781 78.5974 82.3509 79.0673 81.9913 79.512C81.8514 79.7003 81.6694 79.8533 81.4599 79.9589C81.2503 80.0644 81.019 80.1194 80.7844 80.1197C80.137 80.1343 79.753 79.5738 79.978 78.8246C80.1347 78.3409 80.353 77.8793 80.6276 77.4514C81.8359 75.4834 82.9186 73.441 83.8692 71.3365C84.0975 70.7368 84.3934 70.1651 84.7511 69.6324C85.9549 68.0437 86.8095 66.2403 87.9111 64.591C88.7302 63.3666 89.4632 62.0817 90.2775 60.8518C91.7381 58.6639 93.2191 56.4921 94.779 54.3746C95.3627 53.5644 96.0762 52.8563 96.8909 52.2789C97.243 52.0282 97.5048 52.2336 97.3604 52.6974C97.1486 53.3601 96.8936 54.0082 96.5971 54.6376C96.3423 55.1531 96.0571 55.6531 95.7431 56.135L95.7687 56.1575Z" fill="#DC1B79"/>
<path d="M115.38 84.5424C114.518 84.9085 113.655 85.2709 112.79 85.6296C112.322 85.8003 111.865 85.9986 111.421 86.2235C110.252 86.8478 109.097 87.4981 107.942 88.1482C106.786 88.7968 105.628 89.4373 104.459 90.0587C103.023 90.8271 101.578 91.5801 100.136 92.3364L95.7952 94.5814C95.3421 94.7937 94.8648 94.9499 94.3739 95.0466C93.9055 95.1568 93.439 94.9242 93.0106 94.5224C92.3863 93.9371 92.218 93.0444 92.7078 92.55C93.0301 92.2446 93.4123 92.0094 93.8301 91.8593C95.6938 91.1158 97.4634 90.1553 99.1025 88.9979C99.5583 88.6785 100.013 88.3059 100.544 88.1669C102.236 87.7168 103.682 86.7539 105.289 86.1327C106.48 85.6674 107.625 85.0914 108.808 84.6035C109.862 84.1684 110.92 83.7415 111.98 83.3229L115.189 82.1318C116.025 81.8165 116.923 81.7053 117.81 81.8073C117.901 81.8122 117.987 81.844 118.059 81.8985C118.131 81.953 118.185 82.0278 118.215 82.1133C118.244 82.1988 118.247 82.291 118.223 82.3783C118.2 82.4655 118.151 82.5437 118.083 82.6028C117.639 83.0268 117.171 83.4241 116.681 83.7926C116.26 84.0611 115.821 84.2983 115.366 84.502L115.38 84.5424Z" fill="#DC1B79"/>
<path d="M108.947 111.793C108.696 111.784 108.445 111.784 108.194 111.759L107.441 111.682C107.176 111.648 106.908 111.636 106.641 111.647C105.929 111.701 105.217 111.783 104.506 111.825C103.795 111.875 103.083 111.92 102.372 111.94C101.496 111.966 100.62 111.976 99.7448 111.957L97.1187 111.9C96.8442 111.875 96.5768 111.799 96.3303 111.675C96.0821 111.568 95.9259 111.213 95.8328 110.749C95.6972 110.074 95.8555 109.357 96.2125 109.192C96.4347 109.099 96.6805 109.08 96.9147 109.136C97.9727 109.335 99.0597 109.322 100.113 109.099C100.408 109.039 100.715 108.93 101 109.034C101.908 109.355 102.83 109.189 103.742 109.331C104.421 109.441 105.105 109.408 105.785 109.498C106.998 109.653 108.21 109.778 109.422 109.974C109.925 110.047 110.392 110.275 110.76 110.625C110.804 110.669 110.838 110.722 110.86 110.781C110.881 110.839 110.89 110.901 110.885 110.964C110.88 111.026 110.862 111.086 110.831 111.14C110.8 111.194 110.758 111.241 110.707 111.277C110.552 111.358 110.394 111.433 110.234 111.502C110.079 111.573 109.917 111.63 109.752 111.674C109.488 111.727 109.219 111.755 108.95 111.759L108.947 111.793Z" fill="#DC1B79"/>
<path d="M30.1706 64.8245C30.4965 65.3297 30.8165 65.8374 31.1307 66.3475C31.2903 66.6218 31.4664 66.8862 31.6579 67.1393C32.1959 67.7901 32.7278 68.448 33.2478 69.1168C33.7649 69.7876 34.256 70.4776 34.721 71.1868C35.2837 72.0652 35.8205 72.9612 36.3184 73.8786C36.8167 74.7958 37.2897 75.7261 37.7375 76.6696C37.8626 76.9681 37.9364 77.2856 37.9559 77.6087C37.991 77.92 37.7626 78.2352 37.4069 78.525C36.8884 78.9465 36.1848 79.0744 35.8667 78.7768C35.6762 78.5824 35.5391 78.3421 35.4688 78.0791C35.1048 76.9067 34.5114 75.8184 33.7229 74.8775C33.5073 74.6137 33.2436 74.3642 33.1578 74.0382C32.8862 72.9915 32.1777 72.1904 31.7051 71.2548C31.527 70.9076 31.3303 70.5703 31.1157 70.2444C30.9083 69.9139 30.6906 69.5899 30.4868 69.2566C29.7585 68.069 29.0163 66.8824 28.2185 65.7294C27.8984 65.2338 27.7459 64.6486 27.7834 64.0598C27.779 63.777 28.01 63.594 28.3599 63.6305L28.6988 63.7024C28.752 63.711 28.8031 63.7299 28.849 63.7581L28.982 63.8299C29.1568 63.9261 29.3256 64.0327 29.4875 64.1492C29.6166 64.244 29.7353 64.3523 29.8416 64.4722C29.9417 64.5961 30.0368 64.7247 30.1388 64.8465L30.1706 64.8245Z" fill="#DC1B79"/>
</g>
<defs>
<clipPath id="clip0_52_9706">
<rect width="115" height="115" fill="white" transform="translate(52.6807 -6) rotate(27.2642)"/>
</clipPath>
</defs>
</svg>
