<svg width="155" height="155" viewBox="0 0 155 155" fill="none" xmlns="http://www.w3.org/2000/svg">
<g clip-path="url(#clip0_52_9710)">
<path d="M61.6095 48.8492C61.4658 50.1071 61.3166 51.3639 61.1339 52.6188C61.0449 53.2848 60.9476 53.9531 60.9037 54.6226C60.6724 58.1966 60.4837 61.7755 60.1657 65.3443C59.9597 67.5405 59.7308 69.7347 59.4792 71.9267L59.0918 75.2134L58.6677 78.4955C58.5646 79.1575 58.4086 79.8102 58.2013 80.4472C58.1281 80.7119 57.993 80.9554 57.8071 81.1575C57.6213 81.3597 57.39 81.5147 57.1324 81.6099C56.4246 81.8892 55.765 81.4308 55.7057 80.5264C55.6816 79.9372 55.7312 79.3474 55.8536 78.7705C56.1069 77.4512 56.303 76.1263 56.4419 74.7959C56.5857 73.466 56.675 72.1303 56.7098 70.789C56.7298 70.0487 56.7073 69.2738 56.8806 68.5711C57.4316 66.3255 57.491 64.0103 57.8549 61.739C58.1243 60.0506 58.2664 58.3398 58.4851 56.6419L59.0662 52.0993C59.2512 50.5843 59.4741 49.0723 59.6639 47.5569C59.7546 46.9687 59.8838 46.3871 60.0508 45.8158C60.2222 45.2796 60.4232 44.7532 60.6528 44.2392C60.8549 43.7841 61.1784 43.8404 61.2963 44.3972C61.4636 45.1965 61.575 46.0064 61.6295 46.8212C61.6523 47.1557 61.6558 47.4931 61.6452 47.8306C61.6208 48.1669 61.5963 48.5044 61.5719 48.8399L61.6095 48.8492Z" fill="white"/>
<path d="M95.7687 62.1575L94.8733 63.5073L93.9441 64.8371C93.6166 65.3081 93.2873 65.7814 93.0014 66.278C92.6183 66.9397 92.2434 67.6061 91.8713 68.2739L90.7437 70.27L88.4981 74.2653L85.721 79.1777L82.9705 84.1059C82.6781 84.5974 82.3509 85.0673 81.9913 85.512C81.8514 85.7003 81.6694 85.8533 81.4599 85.9589C81.2503 86.0644 81.019 86.1194 80.7844 86.1197C80.137 86.1343 79.753 85.5738 79.978 84.8246C80.1347 84.3409 80.353 83.8793 80.6276 83.4514C81.8359 81.4834 82.9186 79.441 83.8692 77.3365C84.0975 76.7368 84.3934 76.1651 84.7511 75.6324C85.9549 74.0437 86.8095 72.2403 87.9111 70.591C88.7302 69.3666 89.4632 68.0817 90.2775 66.8518C91.7381 64.6639 93.2191 62.4921 94.779 60.3746C95.3627 59.5644 96.0762 58.8563 96.8909 58.2789C97.243 58.0282 97.5048 58.2336 97.3604 58.6974C97.1486 59.3601 96.8936 60.0082 96.5971 60.6376C96.3423 61.1531 96.0571 61.6531 95.7431 62.135L95.7687 62.1575Z" fill="white"/>
<path d="M115.38 90.5424C114.518 90.9085 113.655 91.2709 112.79 91.6296C112.322 91.8003 111.865 91.9986 111.421 92.2235C110.252 92.8478 109.097 93.4981 107.942 94.1482C106.786 94.7968 105.628 95.4373 104.459 96.0587C103.023 96.8271 101.578 97.5801 100.136 98.3364L95.7952 100.581C95.3421 100.794 94.8648 100.95 94.3739 101.047C93.9055 101.157 93.439 100.924 93.0106 100.522C92.3863 99.9371 92.218 99.0444 92.7078 98.55C93.0301 98.2446 93.4123 98.0094 93.8301 97.8593C95.6938 97.1158 97.4634 96.1553 99.1025 94.9979C99.5583 94.6785 100.013 94.3059 100.544 94.1669C102.236 93.7168 103.682 92.7539 105.289 92.1327C106.48 91.6674 107.625 91.0914 108.808 90.6035C109.862 90.1684 110.92 89.7415 111.98 89.3229L115.189 88.1318C116.025 87.8165 116.923 87.7053 117.81 87.8073C117.901 87.8122 117.987 87.844 118.059 87.8985C118.131 87.953 118.185 88.0278 118.215 88.1133C118.244 88.1988 118.247 88.291 118.223 88.3783C118.2 88.4655 118.151 88.5437 118.083 88.6028C117.639 89.0268 117.171 89.4241 116.681 89.7926C116.26 90.0611 115.821 90.2983 115.366 90.502L115.38 90.5424Z" fill="white"/>
<path d="M108.947 117.793C108.696 117.784 108.445 117.784 108.194 117.759L107.441 117.682C107.176 117.648 106.908 117.636 106.641 117.647C105.929 117.701 105.217 117.783 104.506 117.825C103.795 117.874 103.083 117.92 102.372 117.94C101.496 117.965 100.62 117.976 99.7448 117.957L97.1187 117.9C96.8442 117.875 96.5768 117.799 96.3303 117.675C96.0821 117.568 95.9259 117.213 95.8328 116.749C95.6972 116.074 95.8555 115.357 96.2125 115.192C96.4347 115.099 96.6805 115.08 96.9147 115.136C97.9727 115.335 99.0597 115.322 100.113 115.099C100.408 115.039 100.715 114.93 101 115.034C101.908 115.355 102.83 115.189 103.742 115.331C104.421 115.441 105.105 115.408 105.785 115.498C106.998 115.653 108.21 115.778 109.422 115.974C109.925 116.047 110.392 116.275 110.76 116.625C110.804 116.669 110.838 116.722 110.86 116.78C110.881 116.839 110.89 116.901 110.885 116.963C110.88 117.026 110.862 117.086 110.831 117.14C110.8 117.194 110.758 117.241 110.707 117.277C110.552 117.358 110.394 117.433 110.234 117.502C110.079 117.573 109.917 117.63 109.752 117.674C109.488 117.727 109.219 117.755 108.95 117.759L108.947 117.793Z" fill="white"/>
<path d="M30.1706 70.8245C30.4965 71.3297 30.8165 71.8374 31.1307 72.3475C31.2903 72.6218 31.4664 72.8862 31.6579 73.1393C32.1959 73.7901 32.7278 74.448 33.2478 75.1168C33.7649 75.7876 34.256 76.4776 34.721 77.1868C35.2837 78.0652 35.8205 78.9612 36.3184 79.8786C36.8167 80.7958 37.2897 81.7261 37.7375 82.6696C37.8626 82.9681 37.9364 83.2856 37.9559 83.6087C37.991 83.92 37.7626 84.2352 37.4069 84.525C36.8884 84.9465 36.1848 85.0744 35.8667 84.7768C35.6762 84.5824 35.5391 84.3421 35.4688 84.0791C35.1048 82.9067 34.5114 81.8184 33.7229 80.8775C33.5073 80.6137 33.2436 80.3642 33.1578 80.0382C32.8862 78.9915 32.1777 78.1904 31.7051 77.2548C31.527 76.9076 31.3303 76.5703 31.1157 76.2444C30.9083 75.9139 30.6906 75.5899 30.4868 75.2566C29.7585 74.069 29.0163 72.8824 28.2185 71.7294C27.8984 71.2338 27.7459 70.6486 27.7834 70.0598C27.779 69.777 28.01 69.594 28.3599 69.6305L28.6988 69.7024C28.752 69.711 28.8031 69.7299 28.849 69.7581L28.982 69.8299C29.1568 69.9261 29.3256 70.0327 29.4875 70.1492C29.6166 70.244 29.7353 70.3523 29.8416 70.4722C29.9417 70.5961 30.0368 70.7247 30.1388 70.8465L30.1706 70.8245Z" fill="white"/>
</g>
<defs>
<clipPath id="clip0_52_9710">
<rect width="115" height="115" fill="white" transform="translate(52.6807) rotate(27.2642)"/>
</clipPath>
</defs>
</svg>
